<svg width="141" height="86" viewBox="0 0 141 86" fill="none" xmlns="http://www.w3.org/2000/svg">
<path d="M59.7 19.35H63.45L44.85 70.125H43.65L32.175 39.375L20.925 70.125H19.725L0.75 19.35H8.925L22.125 60L30.525 34.95L24.675 19.35H32.85L46.05 60L59.7 19.35Z" fill="black"/>
<path d="M61.2919 19H65L46.6077 69.2081H45.4211L34.0742 38.8014L22.9498 69.2081H21.7632L3 19H11.0837L24.1364 59.1962L32.4426 34.4258L26.6579 19H34.7416L47.7943 59.1962L61.2919 19Z" fill="black" fill-opacity="0.1"/>
<path d="M76.4545 41L73.6825 27.581H75.4675L77.4205 37.6085L77.788 39.5405H77.977L78.334 37.6085L80.2975 27.9275H82.87L84.8335 37.6085L85.1905 39.5405H85.3795L85.7575 37.6085L87.7105 27.581H89.4745L86.713 41H83.962L82.408 33.2825L81.673 29.366H81.505L80.7595 33.2825L79.2265 41H76.4545ZM93.5145 41H91.7715V27.581H93.5145V41ZM100.431 41.2415C99.7869 41.2415 99.1954 41.189 98.6564 41.084C98.1244 40.979 97.6484 40.8495 97.2284 40.6955C96.8084 40.5415 96.4584 40.3875 96.1784 40.2335L95.9999 38.501C96.5389 38.823 97.1724 39.1065 97.9004 39.3515C98.6354 39.5895 99.4334 39.7085 100.294 39.7085C101.33 39.7085 102.097 39.5265 102.594 39.1625C103.091 38.7915 103.339 38.2385 103.339 37.5035V37.3355C103.339 36.8525 103.241 36.457 103.045 36.149C102.849 35.841 102.517 35.582 102.048 35.372C101.586 35.162 100.956 34.966 100.158 34.784C99.1499 34.546 98.3414 34.266 97.7324 33.944C97.1304 33.615 96.6929 33.2055 96.4199 32.7155C96.1539 32.2255 96.0209 31.6165 96.0209 30.8885V30.794C96.0209 29.695 96.3814 28.848 97.1024 28.253C97.8234 27.651 98.9154 27.35 100.378 27.35C101.337 27.35 102.153 27.448 102.825 27.644C103.504 27.84 104.057 28.057 104.484 28.295L104.641 29.891C104.144 29.597 103.563 29.3485 102.898 29.1455C102.24 28.9355 101.484 28.8305 100.63 28.8305C99.9514 28.8305 99.4019 28.911 98.9819 29.072C98.5619 29.233 98.2574 29.464 98.0684 29.765C97.8794 30.066 97.7849 30.43 97.7849 30.857V30.899C97.7849 31.333 97.8759 31.704 98.0579 32.012C98.2469 32.32 98.5724 32.586 99.0344 32.81C99.5034 33.034 100.168 33.251 101.029 33.461C102.016 33.692 102.807 33.958 103.402 34.259C103.997 34.56 104.428 34.952 104.694 35.435C104.967 35.918 105.103 36.548 105.103 37.325V37.5455C105.103 38.7565 104.711 39.677 103.927 40.307C103.15 40.93 101.985 41.2415 100.431 41.2415ZM111.28 41.2415C110.636 41.2415 110.044 41.189 109.505 41.084C108.973 40.979 108.497 40.8495 108.077 40.6955C107.657 40.5415 107.307 40.3875 107.027 40.2335L106.849 38.501C107.388 38.823 108.021 39.1065 108.749 39.3515C109.484 39.5895 110.282 39.7085 111.143 39.7085C112.179 39.7085 112.946 39.5265 113.443 39.1625C113.94 38.7915 114.188 38.2385 114.188 37.5035V37.3355C114.188 36.8525 114.09 36.457 113.894 36.149C113.698 35.841 113.366 35.582 112.897 35.372C112.435 35.162 111.805 34.966 111.007 34.784C109.999 34.546 109.19 34.266 108.581 33.944C107.979 33.615 107.542 33.2055 107.269 32.7155C107.003 32.2255 106.87 31.6165 106.87 30.8885V30.794C106.87 29.695 107.23 28.848 107.951 28.253C108.672 27.651 109.764 27.35 111.227 27.35C112.186 27.35 113.002 27.448 113.674 27.644C114.353 27.84 114.906 28.057 115.333 28.295L115.49 29.891C114.993 29.597 114.412 29.3485 113.747 29.1455C113.089 28.9355 112.333 28.8305 111.479 28.8305C110.8 28.8305 110.251 28.911 109.831 29.072C109.411 29.233 109.106 29.464 108.917 29.765C108.728 30.066 108.634 30.43 108.634 30.857V30.899C108.634 31.333 108.725 31.704 108.907 32.012C109.096 32.32 109.421 32.586 109.883 32.81C110.352 33.034 111.017 33.251 111.878 33.461C112.865 33.692 113.656 33.958 114.251 34.259C114.846 34.56 115.277 34.952 115.543 35.435C115.816 35.918 115.952 36.548 115.952 37.325V37.5455C115.952 38.7565 115.56 39.677 114.776 40.307C113.999 40.93 112.834 41.2415 111.28 41.2415ZM118.472 41V27.581H120.194V41H118.472ZM118.987 41V39.5405H126.841V41H118.987ZM119.459 34.8785V33.4295H126.62V34.8785H119.459ZM118.976 29.0405V27.581H126.778V29.0405H118.976ZM132.11 27.581L137.56 39.131H137.686L137.612 33.272V27.581H139.313V41H136.73L131.218 29.3555H131.092L131.165 35.4875V41H129.464V27.581H132.11Z" fill="black"/>
<path d="M75.6437 55V48.2575H77.1885V55H75.6437ZM83.3721 49.1586H81.5376V55H79.9767V49.1586H78.1422V48.2575H83.3721V49.1586ZM90.3952 54.0989C90.8243 54.0989 91.0389 53.9487 91.0389 53.6483V52.892H92.5837V53.7931C92.5837 54.1686 92.3906 54.4636 92.0044 54.6782C91.6504 54.8927 91.2159 55 90.7009 55H89.6228C88.7967 55 88.2174 54.7693 87.8848 54.308C87.7776 54.1579 87.7239 53.9862 87.7239 53.7931V49.4644C87.7239 49.0996 87.9063 48.81 88.2711 48.5954C88.6465 48.3701 89.0971 48.2575 89.6228 48.2575H90.7009C91.2159 48.2575 91.6557 48.3648 92.0205 48.5793C92.396 48.7939 92.5837 49.0889 92.5837 49.4644V50.3655H91.0389V49.6092C91.0389 49.3088 90.8243 49.1586 90.3952 49.1586H89.9285C89.4887 49.1586 89.2688 49.3088 89.2688 49.6092V53.6483C89.2688 53.9487 89.4887 54.0989 89.9285 54.0989H90.3952ZM96.3288 54.0989C96.7579 54.0989 96.9725 53.9487 96.9725 53.6483V51.2989C96.9725 50.9985 96.7579 50.8483 96.3288 50.8483H95.8621C95.4223 50.8483 95.2023 50.9985 95.2023 51.2989V53.6483C95.2023 53.9487 95.4223 54.0989 95.8621 54.0989H96.3288ZM93.6575 51.154C93.6575 50.7893 93.8399 50.4996 94.2046 50.2851C94.5801 50.0598 95.0307 49.9471 95.5564 49.9471H96.6345C97.1495 49.9471 97.584 50.0544 97.938 50.269C98.3242 50.4835 98.5173 50.7785 98.5173 51.154V53.7931C98.5173 54.1686 98.3242 54.4636 97.938 54.6782C97.584 54.8927 97.1495 55 96.6345 55H95.5564C94.7303 55 94.151 54.7693 93.8184 54.308C93.7112 54.1579 93.6575 53.9862 93.6575 53.7931V51.154ZM103.181 51.3149C103.181 51.0146 102.961 50.8644 102.521 50.8644H102.119C101.894 50.8644 101.685 50.9234 101.492 51.0414C101.309 51.1594 101.218 51.3042 101.218 51.4759V55H99.6731V49.9632H101.218V50.269C101.465 50.0651 101.813 49.9632 102.264 49.9632H102.827C103.353 49.9632 103.798 50.0705 104.163 50.2851C104.538 50.4996 104.726 50.7893 104.726 51.154V55H103.181V51.3149ZM109.265 53.1494C109.265 52.849 109.045 52.6989 108.605 52.6989H107.656C106.819 52.6989 106.24 52.4736 105.918 52.023C105.811 51.8728 105.757 51.7011 105.757 51.508V51.154C105.757 50.7893 105.94 50.4996 106.304 50.2851C106.68 50.0598 107.13 49.9471 107.656 49.9471H108.911C109.437 49.9471 109.877 50.0544 110.231 50.269C110.617 50.4835 110.81 50.7785 110.81 51.154V51.3793H109.265V51.2989C109.265 50.9985 109.045 50.8483 108.605 50.8483H107.962C107.522 50.8483 107.302 50.9985 107.302 51.2989V51.3471C107.302 51.669 107.522 51.8192 107.962 51.7977H108.911C109.437 51.7977 109.882 51.905 110.247 52.1195C110.622 52.3341 110.81 52.6291 110.81 53.0046V53.7931C110.81 54.1686 110.617 54.4636 110.231 54.6782C109.877 54.8927 109.437 55 108.911 55H107.656C106.83 55 106.251 54.7693 105.918 54.308C105.811 54.1579 105.757 53.9862 105.757 53.7931V53.2943H107.302V53.6483C107.302 53.9487 107.522 54.0989 107.962 54.0989H108.605C109.045 54.0989 109.265 53.9487 109.265 53.6483V53.1494ZM113.536 53.6483C113.536 53.9487 113.756 54.0989 114.196 54.0989H114.598C114.834 54.0989 115.022 54.0559 115.162 53.9701C115.387 53.8092 115.5 53.6483 115.5 53.4874V49.9632H117.044V55H115.5V54.6943C115.221 54.8981 114.877 55 114.47 55H113.89C113.064 55 112.485 54.7693 112.152 54.308C112.045 54.1579 111.992 53.9862 111.992 53.7931V49.9632H113.536V53.6483ZM118.368 55V48.5471H119.913V55H118.368ZM123.391 53.6483C123.391 53.9487 123.605 54.0989 124.035 54.0989H124.437V55H123.729C122.903 55 122.323 54.7693 121.991 54.308C121.884 54.1579 121.83 53.9862 121.83 53.7931V50.8644H120.897V49.9632H121.83V48.8207H123.391V49.9632H124.372V50.8644H123.391V53.6483ZM126.991 48.6115V49.5126H125.446V48.6115H126.991ZM125.446 49.9632H126.991V55H125.446V49.9632ZM131.728 51.3149C131.728 51.0146 131.508 50.8644 131.068 50.8644H130.666C130.441 50.8644 130.232 50.9234 130.038 51.0414C129.856 51.1594 129.765 51.3042 129.765 51.4759V55H128.22V49.9632H129.765V50.269C130.012 50.0651 130.36 49.9632 130.811 49.9632H131.374C131.9 49.9632 132.345 50.0705 132.71 50.2851C133.085 50.4996 133.273 50.7893 133.273 51.154V55H131.728V51.3149ZM137.04 54.0989C137.469 54.0989 137.683 53.9594 137.683 53.6805V51.3149C137.683 51.0146 137.469 50.8644 137.04 50.8644H136.509C136.069 50.8644 135.849 51.0146 135.849 51.3149V53.6483C135.849 53.9487 136.069 54.0989 136.509 54.0989H137.04ZM137.683 54.823C137.565 54.941 137.329 55 136.975 55H136.203C135.377 55 134.797 54.7747 134.465 54.3241C134.358 54.1739 134.304 54.0023 134.304 53.8092V51.154C134.304 50.8 134.486 50.5157 134.851 50.3011C135.227 50.0759 135.677 49.9632 136.203 49.9632H136.895C137.184 49.9632 137.447 50.0061 137.683 50.092V49.9471H139.228V55.7402C139.228 56.0835 139.035 56.3732 138.649 56.6092C138.295 56.8238 137.86 56.931 137.345 56.931H136.251C135.768 56.931 135.334 56.8238 134.948 56.6092C134.561 56.3946 134.368 56.105 134.368 55.7402V55.4345H135.913V55.5793C135.913 55.8797 136.133 56.0299 136.573 56.0299H137.04C137.469 56.0299 137.683 55.8797 137.683 55.5793V54.823Z" fill="black"/>
</svg>
